<svg width="16" height="16" viewBox="0 0 16 16" fill="none" xmlns="http://www.w3.org/2000/svg">
<path d="M13 7.72224C13.0019 8.4555 12.8306 9.17884 12.5 9.83335C12.108 10.6177 11.5054 11.2773 10.7597 11.7385C10.014 12.1997 9.15458 12.4441 8.27778 12.4445C7.54452 12.4464 6.82118 12.2751 6.16667 11.9445L3 13L4.05556 9.83335C3.72496 9.17884 3.55364 8.4555 3.55556 7.72224C3.55589 6.84544 3.80034 5.98604 4.26151 5.24032C4.72268 4.4946 5.38236 3.892 6.16667 3.50002C6.82118 3.16942 7.54452 2.9981 8.27778 3.00002H8.55556C9.71353 3.0639 10.8072 3.55266 11.6273 4.37272C12.4474 5.19277 12.9361 6.28649 13 7.44446V7.72224Z" stroke="#B91C1C" stroke-width="1.66667" stroke-linecap="round" stroke-linejoin="round"/>
</svg>
