<svg width="213" height="238" viewBox="0 0 213 238" fill="none" xmlns="http://www.w3.org/2000/svg">
<g id="Group 14877">
<g id="Group">
<path id="Vector" d="M89.1884 113.428C78.2392 114.661 67.2901 115.894 56.3409 117.126C49.6155 113.08 42.8901 109.033 36.1647 104.987C34.7236 99.3851 33.2824 93.7836 31.8413 88.1821C29.3598 87.3058 26.8784 86.4295 24.3969 85.5531C23.9145 85.6722 23.4321 85.7914 22.9498 85.9104C22.9498 85.9104 20.4355 88.4998 15.6624 93.4153C15.9887 97.6934 16.315 101.972 16.6413 106.25C12.7982 107.845 8.95507 109.44 5.11201 111.035C3.40801 113.283 1.704 115.531 0 117.779C0.362559 120.643 0.725117 123.507 1.08768 126.371C2.90047 131.955 4.71326 137.538 6.52605 143.121C10.2603 145.188 13.9947 147.255 17.729 149.321C23.131 147.762 28.533 146.203 33.9351 144.644C42.6001 141.019 51.2652 137.393 59.9302 133.768C70.1179 128.583 80.3058 123.399 90.4935 118.214C90.0584 116.619 89.6234 115.024 89.1884 113.428Z" fill="#DDD4C0"/>
<path id="Vector_2" d="M117.375 135.642C110.849 155.51 104.323 175.378 97.7973 195.246C87.3557 198.437 76.9141 201.627 66.4726 204.817C64.9499 209.821 63.4271 214.824 61.9044 219.827H123.436V141.72L117.375 135.642Z" fill="#DDD4C0"/>
<path id="Vector_3" d="M146.216 144.67C139.691 164.538 133.165 184.406 126.639 204.274C120.11 207.678 113.582 211.083 107.053 214.487C110.026 221.702 112.999 228.917 115.972 236.132L138.595 237.437C143.156 234.576 147.717 231.715 152.278 228.855V150.747C150.257 148.721 148.237 146.696 146.216 144.67Z" fill="#DDD4C0"/>
<path id="Vector_4" d="M142.185 26.2127H95.4071C86.2734 39.6997 77.1397 53.1868 68.0061 66.6738C69.0938 92.7051 70.1814 118.737 71.2691 144.768C93.8199 154.339 116.371 163.911 138.922 173.482C154.149 166.159 169.376 158.835 184.604 151.511C189.027 144.043 193.45 136.574 197.873 129.106L202.876 79.0731L180.253 34.2614C167.564 31.5785 154.874 28.8956 142.185 26.2127Z" fill="#F05865"/>
<path id="Vector_5" d="M177.612 28.9781C160.829 20.4333 144.046 11.8885 127.262 3.34369C126.592 4.32824 120.049 14.2746 124.149 25.0713C127.883 34.904 138.856 41.2642 150.777 39.8084C138.732 45.1008 132.398 56.4878 134.625 65.9122C136.475 73.7393 143.663 77.8113 144.578 78.3116C145.049 78.5695 154.842 83.7153 164.319 78.4747C171.998 74.2278 176.168 64.9853 174.428 55.6105C174.327 57.5106 173.941 68.1527 181.871 76.1335C189.465 83.7752 201.623 85.8974 212.533 81.3941C204.762 67.0965 196.99 52.7988 189.219 38.5011C188.228 37.1897 186.974 35.7388 185.405 34.2892C182.614 31.7108 179.811 30.0463 177.612 28.9781Z" fill="#17552B"/>
<path id="Vector_6" d="M190.422 0C184.223 12.8344 178.023 25.6688 171.823 38.5033C185.147 33.2825 198.471 28.0617 211.795 22.8409C211.549 20.6532 210.42 13.0194 203.909 6.79792C198.672 1.79319 192.798 0.420801 190.422 0Z" fill="#17552B"/>
<path id="Vector_7" d="M98.3248 89.6097H94.3651C93.0746 96.5164 91.7841 103.423 90.4937 110.33H98.8554C98.6786 103.423 98.5017 96.5164 98.3248 89.6097Z" fill="black"/>
<path id="Vector_8" d="M120.513 89.6097H116.553C115.263 96.5164 113.972 103.423 112.682 110.33H123.45C122.471 103.423 121.492 96.5164 120.513 89.6097Z" fill="black"/>
<path id="Vector_9" d="M95.701 117.321L108.249 119.996L119.473 112.716C119.913 114.143 120.352 115.57 120.792 116.998C117.585 119.261 114.378 121.525 111.171 123.788L95.5316 120.455C95.5881 119.41 95.6445 118.366 95.701 117.321Z" fill="black"/>
<path id="Vector_10" d="M174.631 90.8199H170.384C169.48 94.0736 168.575 97.3272 167.67 100.581C168.649 103.382 169.628 106.183 170.607 108.984C172.057 108.956 173.508 108.927 174.958 108.899C176.19 105.787 177.423 102.675 178.656 99.5623C177.314 96.6482 175.973 93.7341 174.631 90.8199Z" fill="#FFDC8F"/>
<path id="Vector_11" d="M171.054 123.788H167.774C167.425 127.14 167.077 130.491 166.729 133.843C167.134 135.269 167.54 136.695 167.946 138.121L171.306 138.054C171.714 135.688 172.122 133.321 172.53 130.955C172.038 128.566 171.546 126.177 171.054 123.788Z" fill="#FFDC8F"/>
<path id="Vector_12" d="M183.453 111.96H180.173C179.475 114.528 178.776 117.095 178.078 119.663C178.833 121.873 179.59 124.083 180.345 126.293C181.465 126.271 182.585 126.249 183.705 126.226C184.385 124.763 185.065 123.3 185.746 121.837C184.981 118.545 184.217 115.253 183.453 111.96Z" fill="#FFDC8F"/>
<path id="Vector_13" d="M200.724 151.473C198.852 144.52 196.98 137.568 195.107 130.615C190.319 125.766 185.531 120.917 180.744 116.068L175.627 120.661C178.188 125.686 180.748 130.71 183.309 135.735C182.347 139.159 181.384 142.583 180.422 146.007L165.127 160.43C164.843 163.369 164.558 166.309 164.274 169.248C170.587 175.588 176.9 181.928 183.214 188.267C188.394 186.999 193.574 185.731 198.754 184.462C201.575 178.598 204.396 172.734 207.217 166.869C206.932 164.862 206.647 162.855 206.362 160.848C204.483 157.723 202.603 154.598 200.724 151.473Z" fill="#DDD4C0"/>
<path id="Vector_14" d="M97.4456 92.1713L94.5903 92.0566C94.5259 93.8898 94.4614 95.723 94.397 97.5561C95.4814 97.6595 96.5659 97.7629 97.6503 97.8663C97.5821 95.9679 97.5139 94.0696 97.4456 92.1713Z" fill="white"/>
<path id="Vector_15" d="M119.488 92.4976L116.633 92.3829C116.568 94.2161 116.504 96.0492 116.439 97.8824C117.524 97.9858 118.608 98.0892 119.693 98.1926C119.624 96.2943 119.556 94.396 119.488 92.4976Z" fill="white"/>
</g>
<path id="Vector_16" d="M24.0916 111.676C26.2941 119.561 28.4967 127.447 30.6992 135.332C27.5177 138.378 24.3363 141.423 21.1549 144.469C25.9678 142.303 30.7808 140.136 35.5936 137.97L30.2097 115.619C28.1704 114.304 26.131 112.99 24.0916 111.676Z" fill="#BFB5A2"/>
</g>
</svg>
