<svg width="24" height="24" viewBox="0 0 24 24" fill="none" xmlns="http://www.w3.org/2000/svg">
<path d="M14.4999 7.83398H16.9999C17.5471 7.83398 18.0889 7.94176 18.5944 8.15115C19.1 8.36055 19.5593 8.66746 19.9462 9.05437C20.3331 9.44128 20.64 9.90061 20.8494 10.4061C21.0588 10.9117 21.1666 11.4535 21.1666 12.0007C21.1666 12.5478 21.0588 13.0896 20.8494 13.5952C20.64 14.1007 20.3331 14.56 19.9462 14.9469C19.5593 15.3338 19.1 15.6408 18.5944 15.8501C18.0889 16.0595 17.5471 16.1673 16.9999 16.1673H14.4999M9.49992 16.1673H6.99992C6.45274 16.1673 5.91093 16.0595 5.4054 15.8501C4.89988 15.6408 4.44055 15.3338 4.05364 14.9469C3.27224 14.1655 2.83325 13.1057 2.83325 12.0007C2.83325 10.8956 3.27224 9.83577 4.05364 9.05437C4.83504 8.27297 5.89485 7.83398 6.99992 7.83398H9.49992" stroke="#059669" stroke-width="1.66667" stroke-linecap="round" stroke-linejoin="round"/>
<path d="M8.66675 12H15.3334" stroke="#059669" stroke-width="1.66667" stroke-linecap="round" stroke-linejoin="round"/>
</svg>
