<svg width="146" height="140" viewBox="0 0 146 140" fill="none" xmlns="http://www.w3.org/2000/svg">
<g clip-path="url(#clip0_983_31195)">
<path d="M72.6919 88.1487C64.6717 94.0361 56.6516 99.9316 48.6314 105.819C43.1414 105.503 37.6513 105.186 32.1613 104.862C29.8745 106.581 27.5876 108.3 25.3008 110.012C27.766 113.572 30.2232 117.132 32.6884 120.692C37.6189 122.605 42.5575 124.511 47.488 126.425C49.8478 125.817 52.2076 125.217 54.5675 124.608L57.2841 113.32C62.6444 106.273 68.0047 99.218 73.365 92.171L72.7 88.1406L72.6919 88.1487Z" fill="#BCBEC0"/>
<path d="M88.9106 90.2571C85.8047 99.7126 82.6988 109.168 79.5929 118.624C74.9382 121.551 70.2834 124.487 65.6286 127.414C64.769 130.139 63.9013 132.864 63.0417 135.597C67.1126 137.064 71.1835 138.532 75.2544 140C80.3796 138.686 85.5047 137.381 90.6298 136.067C92.203 134.202 93.7681 132.337 95.3413 130.479L90.9947 119.71C91.2623 110.855 91.5299 102.008 91.7975 93.1521L88.9106 90.2571Z" fill="#DBDEE1"/>
<path d="M116.45 26.5745C110.344 29.5263 104.237 32.4781 98.1228 35.4218C100.604 29.0803 103.094 22.7387 105.575 16.3972C106.613 16.5107 110.246 17.0541 113.206 20.1519C115.59 22.6414 116.239 25.4392 116.442 26.5664L116.45 26.5745Z" fill="#5B5B5F"/>
<path d="M94.2953 24.328L126.514 41.9253L135.166 68.8646L120.943 96.1364L90.3622 107.295L52.378 99.1287L37.1162 83.5506L34.2698 61.1364L45.5904 33.4835L78.5144 20.7437L94.2953 24.328Z" fill="#939393"/>
<path d="M68.9129 62.2232L71.2403 61.915C72.5378 65.8643 73.8352 69.8217 75.1327 73.7709L68.8156 74.6143C68.848 70.4866 68.8885 66.3509 68.921 62.2232H68.9129Z" fill="black"/>
<path d="M86.8832 59.3118L89.2106 59.0037C90.5081 62.9529 91.8056 66.9103 93.1031 70.8595L86.7859 71.7029C86.8183 67.5753 86.8589 63.4395 86.8913 59.3118H86.8832Z" fill="black"/>
<path d="M94.8223 23.5252C90.5405 19.7057 86.2669 15.8781 81.9852 12.0586C84.1909 17.3621 86.4048 22.6737 88.6105 27.9773L65.0042 29.218C73.1459 31.6265 81.2959 34.035 89.4376 36.4353C88.9916 41.2442 88.5375 46.0449 88.0915 50.8538C92.7625 47.9668 97.4254 45.0718 102.096 42.1849C108.357 46.9694 114.625 51.762 120.886 56.5466C118.348 50.8295 115.809 45.1042 113.279 39.3871C118.583 39.5493 123.894 39.7115 129.198 39.8818L102.802 29.0153L94.8304 23.5252H94.8223Z" fill="#5B5B5F"/>
<path opacity="0.3" d="M122.313 54.5759C124.04 59.0928 125.768 63.6179 127.487 68.1348C124.138 74.9304 120.788 81.7342 117.447 88.5298C109.03 92.5683 100.604 96.6067 92.1867 100.645C85.1478 99.4369 78.1089 98.2286 71.0699 97.0203C83.6638 92.1547 96.2576 87.2891 108.86 82.4235C112.793 76.5199 116.726 70.6243 120.659 64.7207C121.21 61.3391 121.762 57.9575 122.313 54.5759Z" fill="white"/>
<path d="M131.915 74.7926C126.781 76.7632 121.648 78.7338 116.515 80.6962C112.785 80.1853 109.054 79.6663 105.324 79.1554C105.575 78.5959 105.827 78.0282 106.078 77.4687C108.779 76.4631 111.471 75.4657 114.171 74.4601C117.78 72.1571 121.389 69.8621 124.997 67.5591C125.841 64.3315 126.684 61.104 127.527 57.8765C128.687 57.0899 129.855 56.2952 131.014 55.5085L143.284 59.0767C143.941 61.5257 144.589 63.9828 145.246 66.4319C143.446 68.9458 141.638 71.4678 139.837 73.9817C138.937 74.3223 138.029 74.6629 137.129 74.9953L131.931 74.7845L131.915 74.7926Z" fill="#DBDEE1"/>
<path d="M28.7148 66.5941C33.3777 69.5053 38.0405 72.4166 42.7034 75.3278C46.4662 75.5306 50.2208 75.7414 53.9835 75.9442C53.8457 75.3441 53.7078 74.744 53.5619 74.1439C51.1047 72.6436 48.6476 71.1515 46.1904 69.6513C43.0846 66.7076 39.9787 63.7639 36.8728 60.8202C36.6619 57.4954 36.443 54.1624 36.2321 50.8376C35.2428 49.8401 34.2535 48.8427 33.2641 47.8452C29.0229 48.2345 24.7817 48.6237 20.5405 49.0049C19.4296 51.2917 18.3267 53.5704 17.2157 55.8573C18.5051 58.6712 19.8026 61.4852 21.092 64.2991C21.911 64.8019 22.7382 65.3128 23.5572 65.8156L28.7067 66.5941H28.7148Z" fill="#DBDEE1"/>
<path d="M87.3942 61.5175L89.0647 61.2256C89.2431 62.296 89.4296 63.3665 89.608 64.4369C88.9836 64.5829 88.3511 64.7288 87.7266 64.8748C87.6212 63.7557 87.5077 62.6366 87.4023 61.5175H87.3942Z" fill="white"/>
<path d="M69.3103 63.7883L70.9808 63.4963C71.1592 64.5668 71.3458 65.6372 71.5242 66.7076C70.8997 66.8536 70.2672 66.9996 69.6428 67.1456C69.5374 66.0265 69.4238 64.9074 69.3184 63.7883H69.3103Z" fill="white"/>
<path d="M86.1858 54.6409C86.9319 54.9004 87.6779 55.1518 88.424 55.4113C90.2161 55.7356 92.0002 56.0519 93.7924 56.3763C93.768 56.7088 93.7437 57.0494 93.7194 57.3818L89.3647 56.7736L86.7859 55.8816L86.1939 54.649L86.1858 54.6409Z" fill="#747679"/>
<path d="M82.715 74.2817C83.5908 74.7926 84.4666 75.2954 85.3424 75.8063C84.9613 76.1388 84.5802 76.4713 84.1909 76.8037C83.0637 76.4469 81.9284 76.0901 80.8012 75.7414C79.82 76.4145 78.8468 77.0957 77.8656 77.7688C77.452 77.1606 77.0385 76.5443 76.6249 75.936C78.6522 75.3846 80.6796 74.8332 82.7069 74.2817H82.715Z" fill="black"/>
<path d="M7.0547 0C6.81953 0.308156 0.761841 20.0301 0.761841 20.0301L9.92542 21.506L11.2472 7.21733L24.2141 8.61214L20.0216 17.9298L21.8056 27.7908L24.9115 33.3781L30.4989 24.2956L28.1715 15.8295L31.9748 5.18999L7.0547 0Z" fill="#059669"/>
<path d="M31.2774 30.5886L27.7822 35.9489L28.1715 42.0066L31.9748 44.5692L35.4699 37.5789L33.9129 32.9971L31.2774 30.5886Z" fill="#059669"/>
</g>
<defs>
<clipPath id="clip0_983_31195">
<rect width="144.476" height="140" fill="white" transform="translate(0.761841)"/>
</clipPath>
</defs>
</svg>
